<svg width="1200" height="800" viewBox="0 0 1200 800" fill="none" xmlns="http://www.w3.org/2000/svg">
  <rect width="1200" height="800" rx="28" fill="#EFF6FF"/>
  <rect x="80" y="90" width="1040" height="620" rx="24" fill="white"/>
  <rect x="150" y="170" width="300" height="430" rx="18" fill="#F0F9FF"/>
  <rect x="500" y="170" width="550" height="120" rx="18" fill="#F8FAFC"/>
  <rect x="500" y="320" width="260" height="280" rx="18" fill="#DBEAFE"/>
  <rect x="790" y="320" width="260" height="280" rx="18" fill="#E0F2FE"/>
  <circle cx="300" cy="320" r="70" fill="#2563EB"/>
  <rect x="280" y="270" width="40" height="100" rx="10" fill="white"/>
  <rect x="250" y="300" width="100" height="40" rx="10" fill="white"/>
  <rect x="210" y="440" width="180" height="20" rx="10" fill="#93C5FD"/>
  <rect x="210" y="480" width="120" height="20" rx="10" fill="#BFDBFE"/>
  <rect x="550" y="210" width="340" height="18" rx="9" fill="#CBD5E1"/>
  <rect x="550" y="245" width="250" height="18" rx="9" fill="#E2E8F0"/>
  <rect x="550" y="370" width="160" height="16" rx="8" fill="#2563EB"/>
  <rect x="550" y="405" width="190" height="16" rx="8" fill="#3B82F6"/>
  <rect x="550" y="440" width="130" height="16" rx="8" fill="#60A5FA"/>
  <rect x="840" y="370" width="150" height="16" rx="8" fill="#0891B2"/>
  <rect x="840" y="405" width="120" height="16" rx="8" fill="#06B6D4"/>
  <rect x="840" y="440" width="170" height="16" rx="8" fill="#22D3EE"/>
</svg>
